<?xml version="1.0" encoding="utf-8"?>
<!-- Generator: Adobe Illustrator 21.0.0, SVG Export Plug-In . SVG Version: 6.00 Build 0)  -->
<svg version="1.1" id="Layer_1" xmlns="http://www.w3.org/2000/svg" xmlns:xlink="http://www.w3.org/1999/xlink" x="0px" y="0px"
	 viewBox="0 0 976 48" style="enable-background:new 0 0 976 48;" xml:space="preserve">
<style type="text/css">
	.st0{opacity:0.5;fill:none;stroke:#0000FF;stroke-width:4;stroke-miterlimit:10;}
</style>
<path class="st0" d="M8,8c28.2,0,28.2,32,56.5,32c28.2,0,28.2-32,56.5-32c28.2,0,28.2,32,56.5,32c28.2,0,28.2-32,56.5-32
	c28.2,0,28.2,32,56.5,32c28.2,0,28.2-32,56.5-32C375,8,375,40,403.3,40c28.2,0,28.2-32,56.5-32C488,8,488,40,516.2,40
	c28.2,0,28.2-32,56.5-32c28.2,0,28.2,32,56.5,32c28.2,0,28.2-32,56.5-32c28.2,0,28.2,32,56.5,32c28.2,0,28.2-32,56.5-32
	c28.2,0,28.2,32,56.5,32c28.2,0,28.2-32,56.5-32c28.2,0,28.2,32,56.5,32"/>
</svg>
