<?xml version="1.0" encoding="utf-8"?>
<!-- Generator: Adobe Illustrator 21.0.0, SVG Export Plug-In . SVG Version: 6.00 Build 0)  -->
<svg version="1.1" id="Layer_1" xmlns="http://www.w3.org/2000/svg" xmlns:xlink="http://www.w3.org/1999/xlink" x="0px" y="0px"
	 viewBox="0 0 976 48" style="enable-background:new 0 0 976 48;" xml:space="preserve">
<style type="text/css">
	.st0{opacity:0.5;fill:none;stroke:#0080FF;stroke-width:4;stroke-miterlimit:10;}
</style>
<path class="st0" d="M968,8c-28.2,0-28.2,32-56.5,32c-28.2,0-28.2-32-56.5-32c-28.2,0-28.2,32-56.5,32c-28.2,0-28.2-32-56.5-32
	c-28.2,0-28.2,32-56.5,32c-28.2,0-28.2-32-56.5-32C601,8,601,40,572.7,40c-28.2,0-28.2-32-56.5-32C488,8,488,40,459.8,40
	c-28.2,0-28.2-32-56.5-32c-28.2,0-28.2,32-56.5,32c-28.2,0-28.2-32-56.5-32c-28.2,0-28.2,32-56.5,32c-28.2,0-28.2-32-56.5-32
	c-28.2,0-28.2,32-56.5,32c-28.2,0-28.2-32-56.5-32c-28.2,0-28.2,32-56.5,32"/>
</svg>
